<svg width="37" height="37" viewBox="0 0 37 37" fill="none" xmlns="http://www.w3.org/2000/svg">
<rect x="1" y="1" width="35" height="35" rx="5" fill="#DBA833"/>
<path d="M18.5 5.2998C11.2103 5.2998 5.29999 11.2101 5.29999 18.4998C5.29999 20.9761 5.99556 23.2849 7.18202 25.2652L5.41815 31.6998L11.9902 29.9746C13.9123 31.0674 16.1311 31.6998 18.5 31.6998C25.7897 31.6998 31.7 25.7895 31.7 18.4998C31.7 11.2101 25.7897 5.2998 18.5 5.2998ZM13.9818 12.3424C14.1963 12.3424 14.4167 12.3411 14.607 12.351C14.8424 12.3565 15.0986 12.3737 15.3439 12.916C15.6354 13.5606 16.2702 15.1777 16.3516 15.3416C16.433 15.5055 16.4906 15.6986 16.3773 15.9131C16.2695 16.1331 16.2135 16.2662 16.0551 16.4609C15.8912 16.6501 15.7116 16.8851 15.5631 17.0281C15.3992 17.192 15.2299 17.3717 15.4191 17.6984C15.6083 18.0251 16.2654 19.0961 17.2367 19.9607C18.4852 21.0761 19.5386 21.4189 19.8664 21.5828C20.1942 21.7467 20.384 21.7212 20.5732 21.5012C20.7679 21.2867 21.3909 20.5507 21.6109 20.2229C21.8254 19.8951 22.0444 19.9518 22.3414 20.0596C22.6428 20.1674 24.2501 20.9591 24.5779 21.123C24.9057 21.2869 25.1206 21.3681 25.2031 21.5012C25.2878 21.6387 25.2879 22.2932 25.0162 23.0566C24.7445 23.8189 23.4103 24.5561 22.8119 24.6078C22.208 24.6639 21.6444 24.8793 18.8867 23.7936C15.5603 22.4835 13.4625 19.0764 13.2986 18.8564C13.1347 18.6419 11.9666 17.0851 11.9666 15.4791C11.9666 13.8676 12.8115 13.0784 13.1074 12.7506C13.4088 12.4228 13.7618 12.3424 13.9818 12.3424Z" fill="black"/>
<rect x="1" y="1" width="35" height="35" rx="5" stroke="black" stroke-width="2"/>
</svg>
