<svg width="46" height="46" viewBox="0 0 46 46" fill="none" xmlns="http://www.w3.org/2000/svg">
<path d="M23 41.3976C22.9417 41.3286 22.8772 41.252 22.8068 41.168C22.4425 40.733 21.9213 40.1001 21.2955 39.3105C20.0436 37.7306 18.3751 35.5258 16.7077 33.0247C15.0393 30.522 13.378 27.7318 12.1354 24.9803C10.8891 22.2207 10.0833 19.5417 10.0833 17.2499C10.0833 10.1162 15.8663 4.33325 23 4.33325C30.1337 4.33325 35.9167 10.1162 35.9167 17.2499C35.9167 19.5417 35.1109 22.2207 33.8646 24.9803C32.622 27.7318 30.9608 30.522 29.2923 33.0247C27.6249 35.5258 25.9565 37.7306 24.7045 39.3105C24.0787 40.1001 23.5575 40.733 23.1932 41.168C23.1228 41.252 23.0583 41.3286 23 41.3976ZM17.7083 17.2499C17.7083 20.173 20.077 22.5416 23 22.5416C25.9231 22.5416 28.2917 20.173 28.2917 17.2499C28.2917 14.3269 25.9231 11.9583 23 11.9583C20.077 11.9583 17.7083 14.3269 17.7083 17.2499Z" fill="#DBA833" stroke="black"/>
</svg>
